<?xml version="1.0" encoding="UTF-8"?>
<svg width="239px" height="44px" viewBox="0 0 239 44" version="1.1" xmlns="http://www.w3.org/2000/svg" xmlns:xlink="http://www.w3.org/1999/xlink">
    <!-- Generator: Sketch 52.5 (67469) - http://www.bohemiancoding.com/sketch -->
    <title>Group 31</title>
    <desc>Created with Sketch.</desc>
    <defs>
        <polygon id="path-1" points="0.71324 0.413382353 21.66208 0.413382353 21.66208 14.3360294 0.71324 14.3360294"></polygon>
        <polygon id="path-3" points="0 0.250097872 50.3646387 0.250097872 50.3646387 38.4584809 0 38.4584809"></polygon>
        <polygon id="path-5" points="0 0.250097872 50.3646387 0.250097872 50.3646387 38.4584809 0 38.4584809"></polygon>
        <polygon id="path-7" points="0 0.250097872 50.3646387 0.250097872 50.3646387 38.4584809 0 38.4584809"></polygon>
    </defs>
    <g id="App_Screen_Mockup" stroke="none" stroke-width="1" fill="none" fill-rule="evenodd">
        <g id="iPhone-X-Onboarding_Create_Account" transform="translate(-68.000000, -81.000000)">
            <g id="Group-31" transform="translate(68.000000, 81.000000)">
                <g id="Group-3" transform="translate(217.000000, 14.000000)">
                    <mask id="mask-2" fill="white">
                        <use xlink:href="#path-1"></use>
                    </mask>
                    <g id="Clip-2"></g>
                    <path d="M7.0202,10.0433824 C5.53564,10.0433824 4.33268,8.84867647 4.33268,7.37514706 C4.33268,5.90161765 5.53564,4.70602941 7.0202,4.70602941 C8.50476,4.70602941 9.70772,5.90161765 9.70772,7.37514706 C9.70772,8.84867647 8.50476,10.0433824 7.0202,10.0433824 M20.50444,0.413382353 L6.49924,0.413382353 C3.30396,0.413382353 0.71324,3.01014706 0.71324,6.21485294 L0.71324,8.53544118 C0.71324,11.7392647 3.30396,14.3360294 6.49924,14.3360294 L20.50444,14.3360294 C21.1442,14.3360294 21.66252,13.8163235 21.66252,13.1766176 L21.66252,1.57279412 C21.66252,0.933088235 21.1442,0.413382353 20.50444,0.413382353" id="Fill-1" fill="#F48D71" mask="url(#mask-2)"></path>
                </g>
                <path d="M230,1 C231.328009,2.39375 232.140575,4.21607143 232.140575,6.21517857 L232.140575,6.57678571 C232.140575,6.59910714 232.144835,6.61964286 232.144835,6.64107143 L232.144835,14 L236,14 L236,7.19017857 C236,4.03839286 233.390841,1.45982143 230,1" id="Fill-4" fill="#F48D71"></path>
                <path d="M230,43 C231.328009,41.60625 232.140575,39.7839286 232.140575,37.7848214 L232.140575,37.4232143 C232.140575,37.4008929 232.144835,37.3803571 232.144835,37.3589286 L232.144835,30 L236,30 L236,36.8098214 C236,39.9616071 233.390841,42.5410714 230,43" id="Fill-6" fill="#F48D71"></path>
                <path d="M224.37983,30.1229647 C221.067059,30.1229647 218.372737,26.9853168 218.372737,23.1286781 L218.372737,20.8721799 C218.372737,17.0146832 221.067059,13.8761773 224.37983,13.8761773 L233,13.8761773 L233,6.39627167 C233,2.86395102 230.54195,0 227.506901,0 L184.493099,0 C181.459708,0 179,2.86395102 179,6.39627167 L179,37.6037283 C179,41.136907 181.459708,44 184.493099,44 L227.506901,44 C230.54195,44 233,41.136907 233,37.6037283 L233,30.1229647 L224.37983,30.1229647 Z" id="Fill-8" fill="#FFFFFF"></path>
                <g id="Group-12" transform="translate(0.000000, 1.000000)">
                    <mask id="mask-4" fill="white">
                        <use xlink:href="#path-3"></use>
                    </mask>
                    <g id="Clip-11"></g>
                    <polygon id="Fill-10" fill="#070201" mask="url(#mask-4)" points="31.0677194 38.4584809 19.1583968 38.4584809 -0.000329032258 0.250097872 11.4121548 0.250097872 25.1961387 29.0030553 38.9521548 0.250097872 50.3646387 0.250097872"></polygon>
                </g>
                <path d="M94.7728187,22 C94.7728187,20.5083578 94.5506479,19.0219159 94.1054924,17.5406744 C93.6595232,16.0594329 92.8684975,14.7281357 91.7324153,13.5476495 C90.5955192,12.3662966 89.0460203,11.4076933 87.0822908,10.6718395 C85.1185613,9.9359858 82.6177156,9.56762557 79.5821951,9.56762557 C77.5460363,9.56762557 75.754835,9.73837137 74.2094051,10.0763961 C72.6639752,10.4152875 71.3268813,10.8850551 70.2005649,11.4848322 C69.0726208,12.0863428 68.1277845,12.7875273 67.3636146,13.590986 C66.6002585,14.3953114 65.990713,15.256841 65.5366056,16.1755747 C65.0824982,17.0960419 64.7594147,18.0546453 64.5689826,19.0522514 C64.3769228,20.0489909 64.2817068,21.0318626 64.2817068,22 C64.2817068,22.9880721 64.3769228,23.9848116 64.5689826,24.9910851 C64.7594147,25.9982253 65.0824982,26.9628957 65.5366056,27.8816295 C65.990713,28.8020967 66.6002585,29.6584259 67.3636146,30.4523505 C68.1277845,31.2462751 69.0726208,31.9387924 70.2005649,32.5290355 C71.3268813,33.1201453 72.6639752,33.5847125 74.2094051,33.9236039 C75.754835,34.2616286 77.5460363,34.4315077 79.5821951,34.4315077 C82.6177156,34.4315077 85.1185613,34.0640142 87.0822908,33.3272937 C89.0460203,32.5923067 90.5955192,31.6337034 91.7324153,30.4523505 C92.8684975,29.2718643 93.6595232,27.9405671 94.1054924,26.4584589 C94.5506479,24.9772174 94.7728187,23.4916422 94.7728187,22 M105,22 C105,25.4270502 104.409172,28.4528045 103.22833,31.0772628 C102.045861,33.7008543 100.354758,35.8936811 98.1550233,37.6548764 C95.9544744,39.4186718 93.2867971,40.7491023 90.1503638,41.6496347 C87.0139306,42.5501672 83.4917502,43 79.5821951,43 C75.6726399,43 72.1406938,42.5501672 68.9863567,41.6496347 C65.8312057,40.7491023 63.1456246,39.4186718 60.9271718,37.6548764 C58.7095328,35.8936811 57.0005266,33.7008543 55.8001532,31.0772628 C54.6005936,28.4528045 54,25.4270502 54,22 C54,18.572083 54.6005936,15.5471955 55.8001532,12.9227372 C57.0005266,10.2991457 58.7095328,8.10631887 60.9271718,6.34425688 C63.1456246,4.58219489 65.8312057,3.25003095 68.9863567,2.35036526 C72.1406938,1.44983284 75.6726399,1 79.5821951,1 C83.4917502,1 87.0139306,1.44983284 90.1503638,2.35036526 C93.2867971,3.25003095 95.9544744,4.58219489 98.1550233,6.34425688 C100.354758,8.10631887 102.045861,10.2991457 103.22833,12.9227372 C104.409172,15.5471955 105,18.572083 105,22" id="Fill-13" fill="#030000"></path>
                <polygon id="Fill-15" fill="#070201" points="140.71267 20.9892716 159 41 146.518584 41 134.457316 27.8574252 122.453797 41 110 41 128.258873 20.9892716 110.897209 2 123.378625 2 134.457316 14.2049689 145.592918 2 158.074335 2"></polygon>
                <g id="Group-19" transform="translate(0.000000, 1.000000)">
                    <mask id="mask-6" fill="white">
                        <use xlink:href="#path-5"></use>
                    </mask>
                    <g id="Clip-18"></g>
                    <polygon id="Fill-17" fill="#070201" mask="url(#mask-6)" points="31.0677194 38.4584809 19.1583968 38.4584809 -0.000329032258 0.250097872 11.4121548 0.250097872 25.1961387 29.0030553 38.9521548 0.250097872 50.3646387 0.250097872"></polygon>
                </g>
                <path d="M94.7728187,22 C94.7728187,20.5083578 94.5506479,19.0219159 94.1054924,17.5406744 C93.6595232,16.0594329 92.8684975,14.7281357 91.7324153,13.5476495 C90.5955192,12.3662966 89.0460203,11.4076933 87.0822908,10.6718395 C85.1185613,9.9359858 82.6177156,9.56762557 79.5821951,9.56762557 C77.5460363,9.56762557 75.754835,9.73837137 74.2094051,10.0763961 C72.6639752,10.4152875 71.3268813,10.8850551 70.2005649,11.4848322 C69.0726208,12.0863428 68.1277845,12.7875273 67.3636146,13.590986 C66.6002585,14.3953114 65.990713,15.256841 65.5366056,16.1755747 C65.0824982,17.0960419 64.7594147,18.0546453 64.5689826,19.0522514 C64.3769228,20.0489909 64.2817068,21.0318626 64.2817068,22 C64.2817068,22.9880721 64.3769228,23.9848116 64.5689826,24.9910851 C64.7594147,25.9982253 65.0824982,26.9628957 65.5366056,27.8816295 C65.990713,28.8020967 66.6002585,29.6584259 67.3636146,30.4523505 C68.1277845,31.2462751 69.0726208,31.9387924 70.2005649,32.5290355 C71.3268813,33.1201453 72.6639752,33.5847125 74.2094051,33.9236039 C75.754835,34.2616286 77.5460363,34.4315077 79.5821951,34.4315077 C82.6177156,34.4315077 85.1185613,34.0640142 87.0822908,33.3272937 C89.0460203,32.5923067 90.5955192,31.6337034 91.7324153,30.4523505 C92.8684975,29.2718643 93.6595232,27.9405671 94.1054924,26.4584589 C94.5506479,24.9772174 94.7728187,23.4916422 94.7728187,22 M105,22 C105,25.4270502 104.409172,28.4528045 103.22833,31.0772628 C102.045861,33.7008543 100.354758,35.8936811 98.1550233,37.6548764 C95.9544744,39.4186718 93.2867971,40.7491023 90.1503638,41.6496347 C87.0139306,42.5501672 83.4917502,43 79.5821951,43 C75.6726399,43 72.1406938,42.5501672 68.9863567,41.6496347 C65.8312057,40.7491023 63.1456246,39.4186718 60.9271718,37.6548764 C58.7095328,35.8936811 57.0005266,33.7008543 55.8001532,31.0772628 C54.6005936,28.4528045 54,25.4270502 54,22 C54,18.572083 54.6005936,15.5471955 55.8001532,12.9227372 C57.0005266,10.2991457 58.7095328,8.10631887 60.9271718,6.34425688 C63.1456246,4.58219489 65.8312057,3.25003095 68.9863567,2.35036526 C72.1406938,1.44983284 75.6726399,1 79.5821951,1 C83.4917502,1 87.0139306,1.44983284 90.1503638,2.35036526 C93.2867971,3.25003095 95.9544744,4.58219489 98.1550233,6.34425688 C100.354758,8.10631887 102.045861,10.2991457 103.22833,12.9227372 C104.409172,15.5471955 105,18.572083 105,22" id="Fill-20" fill="#030000"></path>
                <polygon id="Fill-22" fill="#070201" points="140.71267 20.9892716 159 41 146.518584 41 134.457316 27.8574252 122.453797 41 110 41 128.258873 20.9892716 110.897209 2 123.378625 2 134.457316 14.2049689 145.592918 2 158.074335 2"></polygon>
                <g id="Group-26" transform="translate(0.000000, 1.000000)">
                    <mask id="mask-8" fill="white">
                        <use xlink:href="#path-7"></use>
                    </mask>
                    <g id="Clip-25"></g>
                    <polygon id="Fill-24" fill="#FFFFFF" mask="url(#mask-8)" points="31.0677194 38.4584809 19.1583968 38.4584809 -0.000329032258 0.250097872 11.4121548 0.250097872 25.1961387 29.0030553 38.9521548 0.250097872 50.3646387 0.250097872"></polygon>
                </g>
                <path d="M94.7728187,22 C94.7728187,20.5083578 94.5506479,19.0219159 94.1054924,17.5406744 C93.6595232,16.0594329 92.8684975,14.7281357 91.7324153,13.5476495 C90.5955192,12.3662966 89.0460203,11.4076933 87.0822908,10.6718395 C85.1185613,9.9359858 82.6177156,9.56762557 79.5821951,9.56762557 C77.5460363,9.56762557 75.754835,9.73837137 74.2094051,10.0763961 C72.6639752,10.4152875 71.3268813,10.8850551 70.2005649,11.4848322 C69.0726208,12.0863428 68.1277845,12.7875273 67.3636146,13.590986 C66.6002585,14.3953114 65.990713,15.256841 65.5366056,16.1755747 C65.0824982,17.0960419 64.7594147,18.0546453 64.5689826,19.0522514 C64.3769228,20.0489909 64.2817068,21.0318626 64.2817068,22 C64.2817068,22.9880721 64.3769228,23.9848116 64.5689826,24.9910851 C64.7594147,25.9982253 65.0824982,26.9628957 65.5366056,27.8816295 C65.990713,28.8020967 66.6002585,29.6584259 67.3636146,30.4523505 C68.1277845,31.2462751 69.0726208,31.9387924 70.2005649,32.5290355 C71.3268813,33.1201453 72.6639752,33.5847125 74.2094051,33.9236039 C75.754835,34.2616286 77.5460363,34.4315077 79.5821951,34.4315077 C82.6177156,34.4315077 85.1185613,34.0640142 87.0822908,33.3272937 C89.0460203,32.5923067 90.5955192,31.6337034 91.7324153,30.4523505 C92.8684975,29.2718643 93.6595232,27.9405671 94.1054924,26.4584589 C94.5506479,24.9772174 94.7728187,23.4916422 94.7728187,22 M105,22 C105,25.4270502 104.409172,28.4528045 103.22833,31.0772628 C102.045861,33.7008543 100.354758,35.8936811 98.1550233,37.6548764 C95.9544744,39.4186718 93.2867971,40.7491023 90.1503638,41.6496347 C87.0139306,42.5501672 83.4917502,43 79.5821951,43 C75.6726399,43 72.1406938,42.5501672 68.9863567,41.6496347 C65.8312057,40.7491023 63.1456246,39.4186718 60.9271718,37.6548764 C58.7095328,35.8936811 57.0005266,33.7008543 55.8001532,31.0772628 C54.6005936,28.4528045 54,25.4270502 54,22 C54,18.572083 54.6005936,15.5471955 55.8001532,12.9227372 C57.0005266,10.2991457 58.7095328,8.10631887 60.9271718,6.34425688 C63.1456246,4.58219489 65.8312057,3.25003095 68.9863567,2.35036526 C72.1406938,1.44983284 75.6726399,1 79.5821951,1 C83.4917502,1 87.0139306,1.44983284 90.1503638,2.35036526 C93.2867971,3.25003095 95.9544744,4.58219489 98.1550233,6.34425688 C100.354758,8.10631887 102.045861,10.2991457 103.22833,12.9227372 C104.409172,15.5471955 105,18.572083 105,22" id="Fill-27" fill="#FFFFFF"></path>
                <polygon id="Fill-29" fill="#FFFFFF" points="140.71267 20.9892716 159 41 146.518584 41 134.457316 27.8574252 122.453797 41 110 41 128.258873 20.9892716 110.897209 2 123.378625 2 134.457316 14.2049689 145.592918 2 158.074335 2"></polygon>
            </g>
        </g>
    </g>
</svg>