<?xml version="1.0" encoding="UTF-8"?>
<svg width="249px" height="45px" viewBox="0 0 249 45" version="1.1" xmlns="http://www.w3.org/2000/svg" xmlns:xlink="http://www.w3.org/1999/xlink">
    <!-- Generator: Sketch 52.5 (67469) - http://www.bohemiancoding.com/sketch -->
    <title>vox_wallet-2col-RGB</title>
    <desc>Created with Sketch.</desc>
    <defs>
        <polygon id="path-1" points="0.0126336375 0.142464455 246.187484 0.142464455 246.187484 44.9872038 0.0126336375 44.9872038"></polygon>
    </defs>
    <g id="App_Screens" stroke="none" stroke-width="1" fill="none" fill-rule="evenodd">
        <g id="iPhone-X-v1.0-Login-v2-Copy" transform="translate(-63.000000, -109.000000)">
            <g id="vox_wallet-2col-RGB" transform="translate(63.000000, 109.000000)">
                <path d="M234.251592,25.5126518 C232.792097,25.5126518 231.608894,24.3346781 231.608894,22.8813559 C231.608894,21.4280338 232.792097,20.2500601 234.251592,20.2500601 C235.708978,20.2500601 236.892181,21.4280338 236.892181,22.8813559 C236.892181,24.3346781 235.708978,25.5126518 234.251592,25.5126518 Z M247.505156,16.0169492 L233.739081,16.0169492 C230.598636,16.0169492 228.050847,18.578029 228.050847,21.7373235 L228.050847,24.0253884 C228.050847,27.1846829 230.598636,29.7457627 233.739081,29.7457627 L247.505156,29.7457627 C248.133666,29.7457627 248.644068,29.2334619 248.644068,28.6017303 L248.644068,17.1609816 C248.644068,16.52925 248.133666,16.0169492 247.505156,16.0169492 Z" id="Fill-1" fill="#F48D71"></path>
                <path d="M241.779661,1.52542373 C242.79353,2.91509869 243.411356,4.73296726 243.411356,6.72649942 L243.411356,7.08759778 C243.411356,7.10931145 243.415317,7.13037371 243.415317,7.15208738 L243.415317,14.4915254 L246.355932,14.4915254 L246.355932,7.69905476 C246.355932,4.55643511 244.365819,1.98314792 241.779661,1.52542373" id="Fill-2" fill="#F48D71"></path>
                <g id="Group-7">
                    <mask id="mask-2" fill="white">
                        <use xlink:href="#path-1"></use>
                    </mask>
                    <g id="Clip-4"></g>
                    <path d="M241.321428,43.5740758 C242.399498,42.2089336 243.056447,40.4236493 243.056447,38.4656161 L243.056447,38.1109479 C243.056447,38.0894076 243.060658,38.0689336 243.060658,38.0476066 L243.060658,30.8388626 L246.187484,30.8388626 L246.187484,37.5103791 C246.187484,40.5970379 244.071349,43.1245024 241.321428,43.5740758" id="Fill-3" fill="#F48D71" mask="url(#mask-2)"></path>
                    <path d="M226.369518,23.7213981 L226.369518,21.4210664 C226.369518,17.4890047 229.178396,14.2899526 232.627379,14.2899526 L241.60779,14.2899526 L241.60779,6.66319905 C241.60779,3.06191943 239.045267,0.142464455 235.886858,0.142464455 L191.077872,0.142464455 C187.917778,0.142464455 185.355887,3.06191943 185.355887,6.66319905 L185.355887,38.4792654 C185.355887,42.0807583 187.917778,45 191.077872,45 L235.886858,45 C239.045267,45 241.60779,42.0807583 241.60779,38.4792654 L241.60779,30.8527251 L232.627379,30.8527251 C229.178396,30.8527251 226.369518,27.653673 226.369518,23.7213981 Z" id="Fill-5" fill="#297EE1" mask="url(#mask-2)"></path>
                    <polyline id="Fill-6" fill="#297EE1" mask="url(#mask-2)" points="32.6162621 42.6798341 20.1138038 42.6798341 0 2.40376777 11.9813207 2.40376777 26.4523103 32.7130806 40.8936108 2.40376777 52.8751421 2.40376777 32.6162621 42.6798341"></polyline>
                </g>
                <path d="M99.7333837,22.8812485 C99.7333837,21.3646589 99.4971996,19.8532271 99.0246205,18.3467381 C98.5511987,16.8406789 97.7115967,15.486558 96.5049716,14.2858799 C95.2981358,13.084342 93.6526421,12.1097447 91.5674372,11.3610132 C89.4822323,10.6131413 86.8275306,10.2385607 83.6037537,10.2385607 C81.4418574,10.2385607 79.5397426,10.4117747 77.8993055,10.7560536 C76.2580257,11.1003326 74.8386031,11.577853 73.6420911,12.1881853 C72.4445257,12.7993771 71.4412171,13.512864 70.6302689,14.3297206 C69.8193208,15.1474368 69.1720792,16.0236074 68.6902298,16.9584472 C68.2075376,17.8941467 67.8649547,18.8693888 67.662481,19.8833139 C67.4589539,20.897239 67.3578224,21.8965505 67.3578224,22.8812485 C67.3578224,23.8857178 67.4589539,24.8998578 67.662481,25.9232388 C67.8649547,26.9474793 68.2075376,27.9278792 68.6902298,28.862719 C69.1720792,29.7982035 69.8193208,30.6692164 70.6302689,31.4766171 C71.4412171,32.2840178 72.4445257,32.9880489 73.6420911,33.5889253 C74.8386031,34.1898016 76.2580257,34.6623793 77.8993055,35.0066582 C79.5397426,35.3509372 81.4418574,35.5230767 83.6037537,35.5230767 C86.8275306,35.5230767 89.4822323,35.1493556 91.5674372,34.4006241 C93.6526421,33.6527523 95.2981358,32.6781549 96.5049716,31.4766171 C97.7115967,30.2759389 98.5511987,28.922033 99.0246205,27.4148993 C99.4971996,25.9084103 99.7333837,24.397838 99.7333837,22.8812485 Z M110.59322,22.8812485 C110.59322,26.3663743 109.965362,29.4436091 108.711332,32.1118784 C107.455616,34.7801476 105.660743,37.010439 103.325026,38.8016781 C100.988257,40.5946364 98.1555218,41.9476827 94.8255568,42.863396 C91.494749,43.7793241 87.75478,44.2372881 83.6037537,44.2372881 C79.452938,44.2372881 75.7026453,43.7793241 72.3535074,42.863396 C69.0033161,41.9476827 66.1509866,40.5946364 63.795887,38.8016781 C61.4405767,37.010439 59.6263199,34.7801476 58.3520631,32.1118784 C57.0778064,29.4436091 56.440678,26.3663743 56.440678,22.8812485 C56.440678,19.395263 57.0778064,16.3188878 58.3520631,13.6506186 C59.6263199,10.9823493 61.4405767,8.75205791 63.795887,6.96017414 C66.1509866,5.16893507 69.0033161,3.8139546 72.3535074,2.899101 C75.7026453,1.98317288 79.452938,1.52542373 83.6037537,1.52542373 C87.75478,1.52542373 91.494749,1.98317288 94.8255568,2.899101 C98.1555218,3.8139546 100.988257,5.16893507 103.325026,6.96017414 C105.660743,8.75205791 107.455616,10.9823493 108.711332,13.6506186 C109.965362,16.3188878 110.59322,19.395263 110.59322,22.8812485 Z" id="Fill-8" fill="#297EE1"></path>
                <polyline id="Fill-9" fill="#297EE1" points="145.959052 21.9706493 164.745763 42.7118644 151.924016 42.7118644 139.533085 29.0898063 127.200854 42.7118644 114.40678 42.7118644 133.164978 21.9706493 115.328788 2.28813559 128.151374 2.28813559 139.533085 14.9388255 150.972657 2.28813559 163.795243 2.28813559 145.959052 21.9706493"></polyline>
            </g>
        </g>
    </g>
</svg>