<?xml version="1.0" encoding="UTF-8"?>
<svg width="244px" height="45px" viewBox="0 0 244 45" version="1.1" xmlns="http://www.w3.org/2000/svg" xmlns:xlink="http://www.w3.org/1999/xlink">
    <!-- Generator: sketchtool 52.5 (67469) - http://www.bohemiancoding.com/sketch -->
    <title>72EC419E-5449-42C9-AF52-5EB77250DCF4</title>
    <desc>Created with sketchtool.</desc>
    <defs>
        <polygon id="path-1" points="0.0124102564 0.142464455 241.83453 0.142464455 241.83453 44.9872038 0.0124102564 44.9872038"></polygon>
    </defs>
    <g id="App_Screens" stroke="none" stroke-width="1" fill="none" fill-rule="evenodd">
        <g id="iPhone-X-v1.0-Login" transform="translate(-59.000000, -128.000000)">
            <g id="vox_wallet-2col-DARK_BG-v2" transform="translate(59.000000, 128.000000)">
                <path d="M230.022122,25.683272 C228.60467,25.683272 227.455551,24.4820297 227.455551,23 C227.455551,21.5179703 228.60467,20.316728 230.022122,20.316728 C231.437526,20.316728 232.586645,21.5179703 232.586645,23 C232.586645,24.4820297 231.437526,25.683272 230.022122,25.683272 Z M242.893896,16 L229.524375,16 C226.474396,16 224,18.6116691 224,21.8333694 L224,24.1666306 C224,27.3883309 226.474396,30 229.524375,30 L242.893896,30 C243.504302,30 244,29.4775797 244,28.8333694 L244,17.1666306 C244,16.5224203 243.504302,16 242.893896,16 Z" id="Fill-1" fill="#E9856C"></path>
                <path d="M237,1 C238.107746,2.3933081 238.782778,4.21592926 238.782778,6.21467328 L238.782778,6.57671568 C238.782778,6.59848612 238.787105,6.61960344 238.787105,6.64137388 L238.787105,14 L242,14 L242,7.18977124 C242,4.03893559 239.825617,1.45892086 237,1" id="Fill-2" fill="#E9856C"></path>
                <g id="Group-7">
                    <mask id="mask-2" fill="white">
                        <use xlink:href="#path-1"></use>
                    </mask>
                    <g id="Clip-4"></g>
                    <path d="M237.054513,43.5740758 C238.113521,42.2089336 238.758855,40.4236493 238.758855,38.4656161 L238.758855,38.1109479 C238.758855,38.0894076 238.762991,38.0689336 238.762991,38.0476066 L238.762991,30.8388626 L241.83453,30.8388626 L241.83453,37.5103791 C241.83453,40.5970379 239.755812,43.1245024 237.054513,43.5740758" id="Fill-3" fill="#E9856C" mask="url(#mask-2)"></path>
                    <path d="M228.514188,30.8527251 C225.126188,30.8527251 222.366974,27.653673 222.366974,23.7213981 L222.366974,21.4210664 C222.366974,17.4890047 225.126188,14.2899526 228.514188,14.2899526 L237.335812,14.2899526 L237.335812,6.66319905 C237.335812,3.06191943 234.818598,0.142464455 231.716034,0.142464455 L187.699337,0.142464455 C184.595118,0.142464455 182.078525,3.06191943 182.078525,6.66319905 L182.078525,38.4792654 C182.078525,42.0807583 184.595118,45 187.699337,45 L231.716034,45 C234.818598,45 237.335812,42.0807583 237.335812,38.4792654 L237.335812,30.8527251 L228.514188,30.8527251" id="Fill-5" fill="#FFFFFE" mask="url(#mask-2)"></path>
                    <polyline id="Fill-6" fill="#FFFFFE" mask="url(#mask-2)" points="32.039559 42.6798341 19.7581624 42.6798341 0 2.40376777 11.7694735 2.40376777 25.9845949 32.7130806 40.1705521 2.40376777 51.9402325 2.40376777 32.039559 42.6798341"></polyline>
                </g>
                <path d="M97.3712961,22.4998918 C97.3712961,20.9730713 97.1401387,19.4514433 96.6776177,17.9347915 C96.2142718,16.4185724 95.3925392,15.0553166 94.211595,13.8465386 C93.0304446,12.6368951 91.4199725,11.6557231 89.3791475,10.9019407 C87.3383225,10.1490236 84.7401215,9.77191605 81.584957,9.77191605 C79.4690729,9.77191605 77.6074413,9.94629856 76.0019181,10.2929 C74.3955701,10.6395015 73.0063574,11.1202433 71.8353111,11.7346929 C70.6632338,12.3500078 69.6812788,13.0683079 68.8875903,13.8906751 C68.0939017,14.7139076 67.4604356,15.5959889 66.9888415,16.5371352 C66.5164226,17.4791469 66.1811309,18.460968 65.9829666,19.4817331 C65.7837712,20.5024982 65.6847921,21.5085511 65.6847921,22.4998918 C65.6847921,23.5111373 65.7837712,24.5321187 65.9829666,25.5624035 C66.1811309,26.5935536 66.5164226,27.5805673 66.9888415,28.5217135 C67.4604356,29.4635089 68.0939017,30.3403976 68.8875903,31.1532451 C69.6812788,31.9660926 70.6632338,32.6748731 71.8353111,33.279803 C73.0063574,33.8847329 74.3955701,34.3604985 76.0019181,34.7071 C77.6074413,35.0537014 79.4690729,35.2270022 81.584957,35.2270022 C84.7401215,35.2270022 87.3383225,34.85076 89.3791475,34.0969776 C91.4199725,33.3440605 93.0304446,32.3628885 94.211595,31.1532451 C95.3925392,29.9444671 96.2142718,28.5814276 96.6776177,27.0641268 C97.1401387,25.5474749 97.3712961,24.0267124 97.3712961,22.4998918 Z M108,22.4998918 C108,26.0085284 107.385505,29.1065224 106.158164,31.7927918 C104.929174,34.4790613 103.172501,36.7243984 100.886497,38.5277212 C98.5994615,40.3327748 95.8270162,41.6949489 92.5679236,42.6168395 C89.3080063,43.5389465 85.647636,44 81.584957,44 C77.5224843,44 73.8520099,43.5389465 70.5741526,42.6168395 C67.2952643,41.6949489 64.5036417,40.3327748 62.1986663,38.5277212 C59.8934847,36.7243984 58.1178411,34.4790613 56.8707047,31.7927918 C55.6235682,29.1065224 55,26.0085284 55,22.4998918 C55,18.9903898 55.6235682,15.8932613 56.8707047,13.2069918 C58.1178411,10.5207223 59.8934847,8.27538529 62.1986663,6.4714134 C64.5036417,4.66809059 67.2952643,3.30396937 70.5741526,2.38294415 C73.8520099,1.46083714 77.5224843,1 81.584957,1 C85.647636,1 89.3080063,1.46083714 92.5679236,2.38294415 C95.8270162,3.30396937 98.5994615,4.66809059 100.886497,6.4714134 C103.172501,8.27538529 104.929174,10.5207223 106.158164,13.2069918 C107.385505,15.8932613 108,18.9903898 108,22.4998918 Z" id="Fill-8" fill="#FFFFFE"></path>
                <polyline id="Fill-9" fill="#FFFFFE" points="143.3398 22.476198 162 43 149.264595 43 136.957104 29.5207307 124.707919 43 112 43 130.631881 22.476198 112.9158 3 125.652038 3 136.957104 15.5180831 148.319643 3 161.055881 3 143.3398 22.476198"></polyline>
            </g>
        </g>
    </g>
</svg>